<svg width="158" height="204" viewBox="0 0 158 204" fill="none" xmlns="http://www.w3.org/2000/svg">
<path d="M3.96196 82.0123C5.78497 73.1403 5.59184 62.9707 11.2223 55.5886C14.649 51.0957 17.7407 46.9155 21.9894 43.1422C23.4543 41.8412 24.854 40.3831 26.5086 39.3145C27.5035 38.672 28.6518 38.5306 29.5214 37.7093C36.682 30.9465 42.9601 23.5862 51.0802 17.8298C56.2762 14.1462 61.213 12.3676 67.132 10.6188C74.6086 8.40981 79.5308 2.09559 87.8265 2.00024C89.4943 1.98107 90.4353 3.11546 91.8271 3.97585C94.5702 5.67162 97.6031 6.83021 100.322 8.51974C102.743 10.0239 105.44 11.7623 107.434 13.8045C110.342 16.7817 114.545 18.3705 117.732 21.0401C120.836 23.6392 122.471 28.1588 125.758 30.3502C128.696 32.3087 130.453 33.875 132.673 36.7215C136.081 41.0914 140.477 45.0879 143.44 49.7605C145.391 52.838 146.685 56.8192 148.329 60.1078C150.401 64.2501 151.266 68.8451 153.244 73.048C153.627 73.863 155.666 81.2442 155.54 81.3702C155.306 81.6044 155.184 80.8097 154.972 80.5553C154.109 79.5187 153.185 78.5209 152.231 77.5672C150.289 75.6252 148.289 73.4987 145.514 72.8751C140.925 71.8439 136.209 71.2888 131.561 70.6773C125.522 69.8825 119.421 71.1706 113.658 69.1215C110.33 67.9383 108.854 70.455 106.15 70.455C101.769 70.455 99.4622 73.3246 96.2722 76.0361C95.8731 76.3753 94.4859 76.9882 95.1856 77.2215C96.4897 77.6562 97.7332 77.8889 99.0874 78.1105C101.839 78.5607 104.378 79.1576 107.138 79.3699C110.282 79.6118 113.469 81.0739 116.572 81.0739C118.313 81.0739 120.275 79.9921 121.856 79.3452C123.684 78.5974 125.78 77.5453 127.19 76.1349C128.685 74.6404 129.134 73.1243 130.845 72.0355C132.308 71.1047 130.212 70.7644 129.314 70.3562C127.994 69.7563 126.635 69.8187 125.264 69.4672C124.266 69.2111 123.186 68.3886 122.177 68.0102C120.577 67.4102 118.897 66.9518 117.263 66.4544C116.028 66.0786 113.958 66.0599 113.04 65.0715C111.839 63.7783 108.723 62.3861 107.089 63.7873C104.172 66.2871 100.919 68.634 97.8774 70.9736C94.7814 73.3551 93.7682 76.8608 91.185 79.444C89.8412 80.7878 85.3076 81.3332 85.3076 83.4446C85.3076 90.7845 87.6536 98.7764 90.3207 105.547C92.0878 110.032 102.377 117.945 94.3707 121.302C92.3215 122.161 89.9867 121.823 87.8759 122.463C85.8138 123.088 83.7279 123.19 81.5786 123.352C76.3543 123.746 70.2323 129.219 65.2552 126.414C62.1225 124.648 56.5767 126.075 56.0686 121.179C55.4904 115.607 59.1644 111.26 59.5012 106.041C59.7729 101.83 60.011 97.677 60.489 93.4708C61.0486 88.5462 61.7218 83.6319 62.2424 78.7032C62.3914 77.292 62.9722 74.7601 62.0448 73.369C60.3066 70.7617 56.4237 68.766 53.9695 66.8742C50.8804 64.4931 45.2969 63.7562 41.696 62.8489C35.2841 61.2333 26.2907 58.3259 21.7671 65.2443C20.7097 66.8616 20.0728 68.6647 19.5199 70.5044C19.2994 71.238 18.0631 74.2402 18.3839 75.1224C18.6768 75.928 19.6222 73.9299 20.3101 73.4184C21.6553 72.4181 23.1269 72.099 24.7552 71.8873C33.1472 70.7964 47.6885 62.5006 54.5869 71.8626C55.7245 73.4065 55.9698 75.1619 55.9698 77.0239C55.9698 77.4285 55.0239 77.2575 54.5375 77.3943C49.197 78.8963 43.6111 80.4264 37.9918 80.2343C33.6215 80.0848 29.4503 78.105 25.3479 76.7769C23.6615 76.231 21.0854 75.2575 19.2729 75.8879C17.6777 76.4428 15.8849 76.1765 14.1363 76.2336C9.90295 76.372 7.52358 78.4946 4.25831 80.8269C3.82041 81.1397 2.27083 81.7788 2.20861 82.4321C1.87366 85.9491 1.97424 89.8556 2.2827 93.372C2.81843 99.4793 5.73236 104.926 7.02415 110.831C8.09198 115.713 8.988 120.667 9.98756 125.574C10.6737 128.942 11.7312 132.22 12.383 135.601C13.3245 140.485 13.5491 145.27 15.3217 149.973C17.083 154.646 18.3451 159.502 20.0632 164.198C22.8117 171.71 31.0965 174.695 34.732 181.706C37.3884 186.829 41.3099 190.186 45.5732 193.881C48.6409 196.54 51.8948 198.698 56.0686 199.265C61.006 199.935 65.916 201.353 70.8856 200.228C75.7927 199.117 79.5572 200.149 84.4185 200.252C89.1117 200.352 93.4037 201.028 98.0008 201.685C100.329 202.017 103.963 202.527 105.632 200.549C107.279 198.596 108.714 196.389 110.669 194.721C112.156 193.453 113.229 192.902 114.25 191.313C117.035 186.98 121.426 183.603 124.918 179.854C127.731 176.835 129.286 173.074 131.586 169.655C133.333 167.058 135.515 164.95 137.389 162.494C140.959 157.817 143.853 152.659 146.922 147.652C151.759 139.759 153.101 129.969 155.195 121.129C156.882 114.006 155.54 106.389 155.54 99.1013C155.54 92.9604 155.54 86.8196 155.54 80.6788" stroke="#EAE2EA" stroke-width="3" stroke-linecap="round"/>
</svg>
