<svg width="157" height="204" viewBox="0 0 157 204" fill="none" xmlns="http://www.w3.org/2000/svg">
<path d="M50.8881 60.0182C63.5912 59.3496 77.3688 53.2477 88.9978 59.5094C90.7877 60.4732 104.514 70.0926 98.0546 70.0926C90.1395 70.0926 83.6113 75.751 75.1074 71.9243C68.8845 69.124 63.1323 65.0877 56.3832 63.6816C52.3292 62.837 49.2123 57.6653 46.5124 55.2354C41.8877 51.0732 38.0822 43.9905 35.0133 38.6483C31.0986 31.8337 53.2122 28.1973 56.2815 27.1493C62.9699 24.8654 70.0916 21.6124 75.3618 16.7187C77.3981 14.8278 81.7543 15.1485 84.2659 14.2764C91.74 11.6813 97.3263 6.16756 105.025 4.15117C110.041 2.8376 116.272 0.578931 121.205 3.23532C124.721 5.12818 127.07 8.40425 131.076 9.44277C137.453 11.096 139.213 18.9746 140.184 24.6052C142.187 36.2229 143.078 47.0026 140.54 58.848C138.959 66.2245 132.332 71.5441 137.131 78.7423C143.137 87.7514 149.477 97.1211 153.26 107.439C154.083 109.682 156.197 117.717 152.548 117.717C149.92 117.717 146.043 116.258 143.695 117.208C135.235 120.632 127.138 125.126 117.796 120.922C113.982 119.206 112.751 116.952 112.301 112.68C112.173 111.46 114.926 105.474 114.947 105.506C115.932 106.983 114.082 113.989 114.082 115.834C114.082 120.406 114.092 121.38 118.661 121.38C123.87 121.38 131.084 122.068 132.857 127.74C133.96 131.271 137.088 133.199 138.301 136.492C140.758 143.16 129.46 141.948 124.665 144.277C120.807 146.151 116.582 146.874 113.37 149.975C112.215 151.09 105.02 157.979 108.994 156.895C112.28 155.999 115.455 154.487 118.661 153.639C120.288 153.208 122.089 153.484 123.749 153.435C125.612 153.38 126.85 151.864 128.736 151.654C133.243 151.154 141.558 152.243 141.558 145.6C141.558 143.314 139.726 137.53 139.726 142.954C139.726 149.05 138.787 148.568 133.315 149.975C131.329 150.486 129.929 151.978 127.82 152.316C125.869 152.628 124.177 151.384 122.325 151.807C118.652 152.646 115.812 155.424 112.047 155.979C109.243 156.393 105.988 155.694 103.702 157.811C102.378 159.037 103.585 160.204 104.923 160.559C106.672 161.021 108.631 160.712 110.419 160.762C112.647 160.824 114.222 162.161 116.321 162.543C122.18 163.608 129.162 162.594 135.147 162.594C140.508 162.594 139.726 163.935 139.726 168.801C139.726 169.681 138.164 174.398 137.436 174.398C137.175 174.398 137.894 168.706 137.894 167.58C137.894 164.06 139.21 160.758 138.759 157.15C138.6 155.877 137.552 153.865 136.164 153.588C135.195 153.394 137.666 156.207 137.792 156.742C138.549 159.956 140.968 171.987 136.978 174.093C134.113 175.605 126.757 174.109 131.89 175.619C134.837 176.486 136.67 180.304 137.182 183.15C137.86 186.92 138.841 190.552 135.859 193.427C133.22 195.973 128.272 200.144 124.411 200.144C110.743 200.144 97.5368 201.975 83.9097 201.975C76.3766 201.975 70.1892 202.526 63.5066 198.414C54.7834 193.046 47.1799 186.322 39.3891 179.69C28.0206 170.011 15.558 160.811 8.04656 147.431C5.10373 142.189 5.41399 133.331 4.12875 127.333C0.668144 111.184 1.3768 91.4248 6.6219 75.6895C9.50426 67.0424 14.3884 59.259 19.4947 51.7755C22.9424 46.723 24.8434 43.0114 30.7394 41.7011" stroke="#EAE2EA" stroke-width="3" stroke-linecap="round"/>
</svg>
