<svg width="165" height="204" viewBox="0 0 165 204" fill="none" xmlns="http://www.w3.org/2000/svg">
<path d="M2 119.624C3.44614 135.531 12.5876 151.851 27.9147 157.424C31.7277 158.811 34.1967 162.663 38.3391 163.416C40.1654 163.748 39.5116 165.879 41.4566 166.095C43.0321 166.27 44.4375 167.895 45.5484 168.92C47.0836 170.337 50.3775 171.731 52.4168 172.184C56.6062 173.115 60.8061 176.122 64.0589 178.857C66.8864 181.235 68.0906 184.685 71.658 186.554C75.7726 188.709 79.7046 190.15 82.9591 194.056C86.8585 198.735 91.1758 201.168 97.4753 201.168C102.356 201.168 110.247 199.574 114.719 201.362C119.883 203.428 123.442 199.852 128.261 199.414C133.526 198.935 137.422 199.705 142.29 197.271C149.605 193.613 146.068 180.57 144.726 174.863C144.364 173.326 143.76 172.288 142.485 171.356C142.217 171.16 140.907 170.497 141.072 170.43C142.71 169.775 143.257 169.36 144.921 170.284C147.143 171.519 149.305 176.743 149.305 179.247C149.305 182.662 149.317 176.972 149.5 176.13C150.029 173.679 151.058 171.203 151.058 168.677C151.058 163.449 151.334 163.098 146.674 160.834C143.28 159.186 141.157 159.216 137.37 159.032C134.835 158.908 132.306 158.301 129.771 158.301C128.026 158.301 128.099 159.391 126.8 159.762C123.534 160.696 120.701 157.752 117.691 157.376C114.355 156.959 114.232 157.536 114.232 153.868C114.232 148.338 117.034 151.541 120.37 152.017C124.04 152.541 128.058 152.066 131.768 152.066C136.402 152.066 141.007 152.943 145.797 152.943C148.146 152.943 150.801 152.573 153.104 152.991C154.222 153.195 153.689 156.833 153.689 157.814C153.689 164.249 153.689 157.783 153.689 155.135C153.689 151.847 153.82 148.531 153.689 145.246C153.35 136.771 120.732 145.727 118.519 148.218C116.201 150.825 112.929 153.278 116.181 148.169C118.77 144.1 120.176 143.857 124.364 142.859C127.056 142.218 130.016 142.962 132.548 141.836C135.632 140.466 141.783 138.026 144.921 140.667C146.463 141.966 152.637 143.96 154.371 142.226C156.735 139.862 151.553 133.459 150.669 131.851C149.625 129.954 149.23 127.617 148.623 125.567C147.36 121.307 146.633 122.393 141.803 121.572C138.386 120.992 135.851 119.165 132.353 118.698C129.959 118.379 128.041 115.868 126.995 113.925C124.123 108.592 128.832 107.869 131.768 106.033C132.867 105.347 135.136 106.222 135.958 105.4C137.291 104.067 133.063 102.971 131.768 101.6C129.111 98.787 127.384 103.889 127.384 105.985C127.384 111.193 127.48 115.943 130.015 120.696C132.726 125.779 131.932 122.254 134.837 122.254C137.208 122.254 138.876 124.764 141.413 124.885C143.413 124.98 145.582 125.046 147.502 124.446C151.591 123.169 153.635 118.747 158.073 118.747C163.389 118.747 162.457 114.236 162.457 110.174C162.457 103.796 161.92 100.797 159.437 95.1218C154.758 84.4265 152.253 71.8061 149.5 60.4877C148.894 57.9993 149.745 56.2872 150.133 54.1551C150.908 49.8932 151.009 44.6598 151.058 40.3209C151.144 32.818 148.757 11.7758 138.247 11.7758C134.812 11.7758 128.64 10.5181 125.826 12.8475C122.773 15.3737 116.725 12.046 113.063 10.8503C105.886 8.50686 99.3242 6.26661 91.6298 4.85871C88.3948 4.26677 85.1014 3.99753 81.8875 3.29993C81.4513 3.20525 78.7798 1.76437 78.0879 2.03342C74.6367 3.37556 71.0708 7.90755 68.2481 10.217C54.9176 21.1238 40.2608 34.7674 34.0524 51.135C30.4333 60.6762 27.8756 70.1303 21.8744 78.2188C13.8384 89.05 10.6734 101.818 7.21217 114.509C6.96187 115.427 5.50725 124.559 5.50725 120.306C5.50725 116.248 7.76938 112.236 9.55034 108.712C13.0506 101.788 16.8956 94.0845 22.5077 88.5944C24.072 87.0641 25.9063 86.4623 27.525 84.8436C33.0078 79.3609 38.4211 70.9832 46.2304 68.7687C55.672 66.0912 62.889 62.4637 72.8271 65.0666C75.3142 65.718 75.9322 68.2247 78.3802 68.7687C82.1183 69.5994 85.4463 72.2759 89.2917 72.2759C91.9461 72.2759 94.4576 73.3073 97.0856 73.1527C99.6658 73.001 100.905 71.3991 103.71 71.3991C105.934 71.3991 108.824 70.9603 110.92 71.7888C112.499 72.4133 113.696 73.6457 115.158 74.468C116.192 75.0496 118.227 77.4566 118.227 76.2703C118.227 75.1755 114.818 71.3419 114.135 69.8891C112.746 66.9377 110.348 61.9302 107.412 60.1954C105.81 59.2486 104.143 59.2294 102.346 59.1237C100.56 59.0186 100.209 57.8588 98.7418 57.4675C95.0221 56.4756 90.0466 57.3701 86.1741 57.3701C82.9871 57.3701 80.0222 58.1872 76.5292 58.2469C74.2142 58.2865 65.9876 58.2717 64.2538 60.439C62.6465 62.4481 59.633 62.6267 58.1161 65.2614C56.2418 68.5168 59.138 59.7623 59.8697 58.6366C65.7846 49.5368 72.6164 42.6962 83.9334 45.4844C88.0835 46.5069 91.1561 48.602 95.5268 48.602C101.027 48.602 105.347 52.1092 110.433 52.1092C115.222 52.1092 117.633 53.0777 121.442 55.6165C126.057 58.6934 121.619 50.7375 120.857 49.5762C118.023 45.2585 117.645 42.9278 112.673 40.7106C106.971 38.1678 100.643 37.9821 94.65 36.0343C90.2775 34.6133 86.7795 34.4299 81.9849 34.6217C79.4657 34.7224 76.5575 36.078 74.0936 35.742C72.357 35.5052 71.9039 34.7172 70.3428 35.9856C64.2933 40.9008 61.6233 50.7308 61.6233 58.2469" stroke="#EAE2EA" stroke-width="3" stroke-linecap="round"/>
</svg>
