<svg width="182" height="204" viewBox="0 0 182 204" fill="none" xmlns="http://www.w3.org/2000/svg">
<path d="M176.77 58.0849C174.736 52.3168 169.644 49.1606 164.54 46.508C155.588 41.8557 154.197 27.9179 144.095 24.4422C142.716 23.9677 142.762 24.6538 141.528 24.6538C140.433 24.6538 138.796 24.0093 137.874 23.7168C133.149 22.2172 128.412 21.6403 123.621 20.5429C122.245 20.2279 122.037 19.9877 120.903 19.1525C117.001 16.2797 113.069 13.7432 108.763 11.4748C102.803 8.33484 96.3997 5.74514 89.9191 3.85761C84.2305 2.20078 78.5953 1.6393 72.7059 2.22535C69.5392 2.54047 66.5003 2.00934 63.3141 2.19512C57.3978 2.54009 51.6859 4.55874 46.7955 7.84758C39.0398 13.0634 36.6595 19.4063 35.3201 28.5229C34.2363 35.8995 35.4409 43.5698 35.4409 51.0118C35.4409 55.6123 34.7174 58.7591 31.2131 61.8935C28.9093 63.9542 27.7507 69.418 24.5694 70.0548C21.5266 70.664 18.4724 72.5343 15.6608 73.8332C13.2191 74.9612 11.1274 80.5032 9.71174 82.5688C7.67857 85.5355 4.65114 88.2121 2.97747 91.3951C-0.183338 97.4063 6.54266 104.708 12.6108 104.876C16.9487 104.997 20.5649 105.972 24.811 106.539C26.2311 106.728 32.9983 108.801 32.6022 107.839C31.8404 105.987 22.3759 103.448 21.8818 105.179C20.9863 108.316 27.348 106.794 29.1898 107.355C34.2452 108.895 39.8297 106.245 42.0846 101.37C42.9641 99.4684 43.752 96.4528 42.4772 94.5387C42.1166 93.9974 39.2324 89.8974 40.6048 91.5765C42.4973 93.8917 41.9638 96.6 41.9638 99.4355C41.9638 102.587 36.993 105.307 34.8973 107.295C32.8842 109.204 29.1141 107.657 26.5323 108.443C24.2362 109.143 23.4181 111.489 23.0595 113.642C22.5109 116.937 20.8457 120.333 19.798 123.557C18.8545 126.46 18.5901 128.314 18.5901 131.386C18.5901 136.551 19.0466 136.433 23.9956 136.433C27.3942 136.433 30.6869 136.69 33.3874 139.033C35.5852 140.94 39.3488 142.962 42.2356 142.962C46.3388 142.962 45.5549 140.733 43.5945 137.945C41.7758 135.358 38.4391 135.434 35.5617 134.378C32.5397 133.269 29.818 130.801 26.4417 130.479C25.2252 130.363 20.7128 129.834 20.1 130.993C16.9357 136.975 25.5105 138.066 29.4616 138.066C30.3301 138.066 34.9975 139.612 32.6022 139.698C30.1033 139.787 28.9128 141.502 26.7739 142.358C24.8205 143.14 23.2977 143.424 21.61 144.806C20.5233 145.696 19.7393 145.572 19.6772 147.436C19.6347 148.715 19.2568 151.509 20.8852 152.091C22.8056 152.778 25.8809 151.027 27.7101 150.459C30.114 149.712 32.5203 149.003 35.0785 148.947C37.3642 148.898 38.1249 147.775 39.7593 146.287C42.1671 144.096 39.0557 148.268 38.4608 148.917C36.2798 151.299 32.0409 149.955 29.3408 150.701C25.5724 151.741 24.5694 154.364 24.5694 157.925C24.5694 160.284 26.2999 161.347 26.7437 163.456C27.2355 165.795 27.2873 168.037 27.2873 170.409C27.2873 177.312 21.7605 185.693 28.3744 190.842C33.4115 194.764 40.254 195.623 45.7688 198.58C56.6658 204.423 70.667 203.15 78.0812 191.87C78.7124 190.909 81.2246 191.386 82.2184 191.386C85.3763 191.386 86.9002 191.512 89.6171 189.633C94.4664 186.279 98.3826 182.521 103.569 179.658C111.425 175.321 120.858 171.831 127.365 165.512C129.588 163.353 130.754 160.954 134.13 160.796C136.738 160.674 139.367 160.627 141.649 159.104C143.163 158.093 144.262 154.827 145.907 154.388C146.799 154.15 147.939 154.456 148.867 154.328C151.733 153.932 154.751 151.621 156.93 149.764C159.42 147.64 162.538 146.812 165.325 145.139C168.697 143.114 169.372 138.141 170.126 134.559C171.478 128.145 171.719 121.45 172.844 114.972C174.022 108.194 173.514 101.351 174.777 94.6294C176.143 87.3574 177.797 80.1268 179.367 72.8962C179.762 71.0796 180.103 69.7618 179.971 67.8785C179.672 63.6154 179.21 59.2732 175.683 56.5736C170.726 52.7794 168.756 45.4598 164.811 40.7346C163.004 38.5694 158.823 39.2624 156.356 39.0419C153.987 38.8302 151.445 36.2366 149.38 35.2031C146.161 33.5919 142.826 31.8943 139.445 30.6388C133.519 28.4386 126.49 28.2555 120.299 26.8302C112.346 24.9992 104.364 27.4522 96.3514 27.8881C93.6392 28.0356 90.657 27.8317 87.9864 28.402C81.1436 29.8631 74.4054 33.159 68.0553 36.0192C65.0887 37.3554 61.9413 39.9827 60.1433 42.7296C59.7679 43.3032 59.3581 44.6137 59.3581 45.2989C59.3581 47.2314 62.3821 45.0763 63.1934 44.8153C65.9133 43.9402 68.4453 44.5284 71.1356 43.3946C74.3527 42.0387 78.0193 41.0405 81.0709 39.3744C86.2715 36.535 92.5429 31.7034 98.9182 33.2987C106.004 35.0719 109.232 42.8025 109.367 49.5609C109.44 53.1959 110.383 60.8054 105.049 60.8054C103.498 60.8054 101.948 60.8054 100.398 60.8054C88.462 60.8054 76.5453 61.0034 64.6731 60.8054C59.0608 60.7117 69.2143 53.7395 70.894 52.5836C75.8425 49.1783 78.2896 46.7038 84.5437 46.6591C90.8195 46.6142 96.7394 47.0668 102.904 48.5936C106.607 49.5106 107.771 50.4989 110.635 52.5836C111.262 53.0396 109.29 56.8716 108.793 57.7827C107.034 61.0101 100.758 60.4127 97.6801 60.7751C93.0121 61.3248 86.9598 62.8008 84.3625 57.6013C83.5692 56.013 83.3935 52.7062 84.121 51.042C84.9988 49.0335 87.7952 49.3795 89.5567 49.3795C92.3488 49.3795 99.4626 49.2268 99.5826 53.43C99.6952 57.3755 97.9761 59.5278 94.1469 60.8054" stroke="#EAE2EA" stroke-width="3" stroke-linecap="round"/>
</svg>
