<svg width="113" height="204" viewBox="0 0 113 204" fill="none" xmlns="http://www.w3.org/2000/svg">
<path d="M49.3116 36.7451C49.3116 40.3873 49.5101 44.4848 54.012 44.4848C55.9824 44.4848 62.5832 46.1441 62.5832 42.5498C62.5832 41.3687 65.074 34.3797 61.7538 35.1173C60.9359 35.299 60.2183 35.9595 59.5111 36.1615C58.8635 36.3465 57.6024 35.6394 56.7769 35.6394C54.545 35.6394 52.5535 36.1923 50.4483 36.1923C47.3145 36.1923 46.9597 38.6243 44.304 39.5093C43.4555 39.792 37.5007 42.9353 37.8218 43.2562C38.1756 43.61 39.1219 43.3096 39.5729 43.4098C40.0948 43.5258 39.7444 44.0727 40.0337 44.3619C40.4214 44.7495 42.1483 44.5141 42.6757 44.4848C44.6608 44.3745 46.7651 42.2222 48.8815 43.8091C50.2057 44.802 54.1204 44.9897 55.7016 45.0376C57.2608 45.0848 58.5999 45.0217 59.8183 43.9319C60.9656 42.9057 61.4747 43.8846 62.7061 43.9319C65.3754 44.0346 68.1933 43.447 70.5708 43.3791C71.7793 43.3446 74.1699 43.885 75.3019 43.2562C76.5489 42.5637 76.9656 40.8095 78.6198 40.6149C80.1165 40.4389 75.4719 38.1202 74.8718 37.9736C73.3864 37.6106 71.7275 37.3524 70.2022 37.2979C68.6563 37.2427 67.1461 36.5806 65.9319 35.6701C64.3497 34.4838 60.9922 35.6758 58.9274 35.363C56.7791 35.0376 54.2864 34.845 52.1072 35.1173C50.8503 35.2744 49.7882 36.5002 48.6664 36.9908C47.1886 37.6372 44.7774 37.4682 43.5667 38.465C41.0827 40.5101 38.6597 41.8703 35.5177 42.8263C34.2007 43.227 29.0142 46.1022 30.5408 42.7955C32.0231 39.5848 33.2872 37.0753 35.5177 34.288C38.7811 30.2098 47.4506 29.0159 52.3223 28.1762C56.2417 27.5006 60.8444 27.3469 64.7952 27.3469C68.7351 27.3469 71.2398 31.1431 74.2574 33.4895C77.331 35.8794 79.4748 39.108 81.6305 42.2427C83.8632 45.4894 89.8218 47.023 93.1203 49.0303C94.549 49.8996 95.6631 51.216 97.3599 51.5795C98.2515 51.7705 99.106 51.4661 99.8791 52.0402C102.562 54.0328 103.645 56.8218 105.04 59.7184C107.09 63.9747 106.364 68.7993 107.805 73.2321C108.643 75.8096 110.481 78.017 111.123 80.7261C111.742 83.3371 111.246 86.5833 111.246 89.2643C111.246 90.3798 111.758 93.1815 110.939 94.117C110.315 94.8293 109.9 94.0531 109.71 95.5298C109.151 99.8786 109.677 104.25 108.911 108.614C108.371 111.693 107.829 114.812 107.252 117.889C106.78 120.409 106.822 122.813 106.822 125.383C106.822 129.85 105.793 134.425 105.163 138.835C104.015 146.868 100.764 153.577 96.3154 160.457C94.3503 163.497 91.526 165.034 89.6181 167.828C87.4001 171.077 85.0789 174.134 82.245 176.858C78.0372 180.903 73.0111 183.984 68.6046 187.976C66.8356 189.579 64.4649 193.275 62.1839 193.811C58.6902 194.633 55.9589 196.737 52.6602 197.804C48.5338 199.139 44.1043 197.894 39.9723 199.8C37.9016 200.756 35.7122 201.49 33.4286 201.49C28.6637 201.49 23.9139 202.638 19.2046 201.49C15.4948 200.585 10.453 200.502 9.25083 196.023C7.41096 189.167 7.83764 180.617 7.83764 173.572C7.83764 169.218 9.07589 165.513 13.7976 164.941C14.8193 164.817 18.2576 164.101 18.0986 164.143C16.4359 164.574 12.8402 165.755 11.217 164.757C8.84872 163.3 8.94361 159.49 8.94361 157.079C8.94361 154.233 8.94361 151.387 8.94361 148.54C8.94361 148.191 8.58325 143.213 9.25083 144.548C10.0678 146.181 10.7767 148.161 12.8145 148.387C16.2264 148.766 19.4226 147.865 22.7683 147.865C26.2456 147.865 29.1103 147.1 31.8004 144.671C32.9912 143.595 34.6701 143.901 36.1628 143.012C38.8691 141.4 42.8436 138.771 44.2118 135.825C44.9567 134.221 46.2244 134.471 44.0275 134.597C42.8543 134.664 41.2295 134.869 40.3409 135.58C39.9611 135.883 38.5766 135.932 38.1904 135.979C34.1606 136.47 30.1952 136.684 26.2091 137.545C21.6832 138.523 16.3871 137.361 11.7085 137.361C9.8747 137.361 6.93596 137.776 6.73167 140.125C6.63949 141.185 6.67427 142.354 6.76239 143.411C6.83444 144.276 8.15226 145.961 7.28465 145.961C5.40122 145.961 5.03162 137.222 5.07271 135.887C5.16569 132.866 6.33973 131.195 8.94361 129.928C11.3439 128.761 14.9255 128.014 17.5456 127.778C20.6825 127.496 23.5017 128.997 26.6392 129.068C32.8191 129.209 38.983 132.123 44.5498 134.597C45.516 135.026 43.4611 134.549 42.9522 134.627C39.738 135.122 36.878 136.138 33.5515 136.286C25.9259 136.625 18.2453 137.361 10.6026 137.361C8.42006 137.361 5.80626 137.749 3.72097 137.054C1.02259 136.155 2.29209 127.624 2.3385 125.536C2.445 120.745 3.11155 115.968 3.69025 111.224C3.80493 110.284 3.65062 104.972 4.82694 104.652C5.3699 104.503 6.46774 105.32 7.16177 105.297C8.30655 105.257 9.34023 104.262 10.2646 103.699C14.1899 101.311 16.7033 96.8344 21.3244 95.6526C24.7448 94.7779 26.064 95.3255 28.2674 98.079C29.3256 99.4014 30.3135 101.427 27.9909 101.427C26.8886 101.427 21.6747 99.0247 21.3551 99.5839C20.5848 100.932 29.1201 102.532 29.9571 102.532C33.3354 102.532 33.6977 102.169 34.8111 98.7854C37.0641 91.9379 35.5456 82.0498 33.9509 75.2592C32.9114 70.8332 30.1779 66.1793 28.2981 61.9912C26.1472 57.199 24.5953 52.2805 22.7683 47.3718C21.1763 43.0945 21.9283 41.7296 17.4842 39.755C16.521 39.327 13.5636 40.4015 12.8145 41.1063C11.9904 41.8818 11.5062 43.2914 11.2784 44.3005C10.0526 49.7317 10.0575 55.5782 9.83453 61.1005C9.63386 66.0715 10.3962 72.0714 8.82073 76.9177C6.68664 83.4823 7.62346 91.5445 4.64261 97.8025C3.26445 100.696 4.51973 91.394 4.51973 88.1894C4.51973 80.808 4.51973 73.4267 4.51973 66.0453C4.51973 51.5953 4.71459 37.1004 5.6257 22.6785C5.86923 18.8236 6.82117 18.5143 9.09722 15.4917C15.2587 7.3093 22.768 3.02069 33.0907 2.10082C40.3697 1.45216 46.4121 3.98158 52.138 8.30484C54.6827 10.2263 56.9906 12.98 59.849 14.4474C64.7244 16.9503 69.0766 19.3043 73.0285 23.2314C78.2907 28.4604 84.1419 33.4007 88.082 39.755C91.5594 45.3629 94.6973 51.1584 98.558 56.5243C99.3942 57.6864 100.186 59.1636 100.186 57.1999" stroke="#EAE2EA" stroke-width="3" stroke-linecap="round"/>
</svg>
