<svg width="161" height="204" viewBox="0 0 161 204" fill="none" xmlns="http://www.w3.org/2000/svg">
<path d="M12.2827 43.7735C18.6021 43.7735 24.7875 43.3178 31.145 43.3178C38.7161 43.3178 44.8254 48.5746 51.9316 50.1538C54.607 50.7483 57.7496 52.4163 58.2866 55.3694C58.7899 58.1378 55.6418 56.6848 54.2103 56.5341C53.2284 56.4307 52.4166 55.7402 51.4759 55.6226C49.0548 55.32 45.847 54.8013 43.5258 54.0275C42.1947 53.5838 40.3565 53.0986 38.9685 52.9135C36.2592 52.5523 34.1303 51.3114 31.4235 50.8121C25.9887 49.8095 19.9134 50.3044 14.5614 51.2678C11.1417 51.8833 9.33074 53.3571 7.62408 56.1796C6.07707 58.7381 7.42903 54.2099 7.75067 53.5465C9.00865 50.9519 9.96459 48.2582 11.118 45.6218C11.6779 44.342 12.5403 43.3577 13.3461 42.2037C16.1771 38.1491 18.8941 34.0126 21.6759 29.9242C23.4753 27.2796 25.4359 23.6323 27.7777 21.2906C28.3549 20.7134 30.0963 20.7568 30.8412 20.4298C33.1776 19.4041 35.2634 17.8499 37.5 16.632C41.0019 14.725 43.621 13.0877 47.6021 13.2646C50.3749 13.3878 53.0409 13.8128 55.8307 13.6697C57.6414 13.5768 58.9063 13.048 60.4386 12.1253C64.5436 9.65346 69.0858 8.05823 73.3005 5.79563C78.7249 2.88359 83.0635 0.910886 89.3018 2.65612C96.6479 4.71126 103.648 8.57589 110.493 11.9227C116.149 14.6875 121.182 20.7299 125.507 25.1137C129.527 29.1879 131.751 34.6227 134.622 39.52C135.829 41.5795 138.521 45.3572 138.521 47.9257C138.521 48.4852 137.98 46.9288 137.584 46.5332C136.673 45.6221 135.58 45.62 134.394 45.3433C131.523 44.6733 129.457 43.6606 126.47 44.2039C122.432 44.938 118.108 43.8293 114.013 44.5331C111.994 44.8801 110.354 45.9445 108.291 46.0522C104.356 46.2575 100.513 46.8284 96.6948 47.8245C93.3354 48.7009 91.9959 51.8775 90.7703 54.9643C90.6249 55.3306 89.0592 57.8405 90.2133 57.9013C92.6642 58.0303 95.0013 56.9491 97.0999 55.7998C103.133 52.4962 109.21 50.7792 116.089 50.1538C120.176 49.7823 124.205 47.1978 128.343 46.9636C130.907 46.8185 133.558 46.5082 136.116 46.837C137.741 47.0461 140.515 49.0062 142.091 48.5334C143.254 48.1846 149.459 56.388 150.497 57.8253C150.878 58.3537 151.282 59.9474 151.282 60.6357C151.282 67.637 139.68 70.2282 134.825 67.6996C132.268 66.368 128.255 65.9729 125.381 66.6362C124.999 66.7244 123.136 68.8979 122.925 69.3959C122.047 71.4704 118.196 72.6705 116.19 73.1937C114.031 73.7568 111.361 73.6022 109.911 71.7759C106.326 67.2615 113.123 66.2768 115.988 66.0792C118.004 65.9401 121.562 65.7465 123.406 64.9398C124.847 64.3095 121.741 64.2819 121.71 64.2816C118.989 64.2546 116.533 64.3345 113.911 65.0917C110.774 65.9982 109.109 67.4717 105.86 67.4717C101.665 67.4717 95.3231 66.8809 93.9098 72.1809C92.9161 75.9074 106.547 76.4655 108.443 75.7762C112.954 74.1356 118.258 74.3979 122.317 71.4214C124.21 70.0337 128.527 71.2553 130.875 70.3833C131.936 69.9892 131.799 68.7261 132.546 68.4844C133.788 68.0827 135.308 68.4904 136.597 68.2819C139.007 67.8921 141.752 67.1388 144.015 66.2564C145.399 65.7168 146.288 63.488 147.585 63.3701C149.785 63.1701 151.799 63.9993 153.105 65.8007C155.458 69.0486 156.042 73.513 156.548 77.3459C157.399 83.7908 157.755 90.3675 157.586 96.8666C157.459 101.767 157.747 106.115 158.371 111.02C159.585 120.559 157.606 129.193 155.282 138.49C153.952 143.812 153.389 149.337 151.003 154.34C149.24 158.036 147.465 161.768 145.307 165.252C143.219 168.62 142.139 172.454 139.585 175.531C134.957 181.107 129.334 185.406 123.457 189.558C121.471 190.961 119.726 192.712 117.608 193.913C108.036 199.34 99.3357 201.374 88.5929 201.204C83.6424 201.126 78.6766 200.712 73.8069 201.711C70.4228 202.405 66.5356 201.722 63.2237 201.002C61.3209 200.588 59.5853 200.22 58.0081 199.078C53.1522 195.56 48.0911 191.666 43.9816 187.279C39.5918 182.594 35.8235 176.824 31.9299 171.784C26.0275 164.144 19.5923 157.157 16.4856 147.934C10.8663 131.253 4.58453 113.971 2.81354 96.3349C1.97193 87.9538 1.30114 78.9781 3.37055 70.7631C3.40339 70.6327 5.79629 61.3303 6.5607 61.8763C8.16651 63.0233 10.0398 65.2654 11.118 66.9906C12.6576 69.4539 12.7461 70.6618 15.6754 70.6618C19.0739 70.6618 21.4408 70.4521 24.5875 69.1934C26.2059 68.546 27.6538 67.6098 29.3221 67.0666C31.2065 66.4531 33.1635 66.5875 35.0694 66.0539C39.4082 64.839 46.969 62.3727 50.3365 67.2945C51.1289 68.4525 52.8507 70.5945 51.1214 70.9403C48.0534 71.554 44.7813 72.8998 42.2599 74.7634C40.739 75.8876 38.4423 76.7018 36.5379 76.5864C33.7777 76.4191 30.7976 71.6511 31.0438 69.0668C31.3037 66.3378 34.5246 67.016 36.4113 67.016C38.9749 67.016 40.1211 69.2821 40.0825 71.6746C40.0373 74.474 38.8713 75.6749 36.2341 75.6749C33.2593 75.6749 29.1554 76.4231 26.4358 75.1432C24.5161 74.2398 22.5596 73.2249 20.6631 72.2316C18.9255 71.3214 15.7436 69.8274 18.4098 72.8392C22.9499 77.9679 30.9477 78.7485 37.2975 77.0168C40.7577 76.0731 42.1244 73.6797 43.779 70.991C44.3656 70.0378 49.2093 70.6618 50.2099 70.6618C53.9719 70.6618 58.0912 68.4103 61.5527 70.4086C66.3121 73.1564 61.3292 84.2357 60.4893 87.4987C58.7938 94.0851 57.3764 100.919 55.3749 107.424C54.2467 111.091 51.996 112.818 52.4886 116.894C53.3103 123.691 57.2804 124.439 63.2743 124.439C65.519 124.439 68.3163 124.109 70.1863 125.628C74.1045 128.812 77.4661 126.984 82.0101 125.451C85.7242 124.199 89.1925 123.779 93.049 123.527C98.4517 123.175 95.6675 115.587 94.3402 112.969C91.8295 108.017 90.3649 102.576 88.441 97.3223C87.5653 94.931 86.7459 92.4907 86.4661 89.9546C85.8658 84.5118 84.4211 79.1908 84.2887 73.7001C84.2156 70.6636 84.3562 67.622 84.2887 64.5854C84.2542 63.0328 83.4459 65.7539 83.4026 65.9019C82.8736 67.7095 82.8956 69.3997 82.9469 71.2695C83.2013 80.5577 83.5346 90.4437 85.5294 99.5503C86.6676 104.747 87.4971 110.159 89.1499 115.223C89.9446 117.657 92.7452 121.202 92.7452 123.78C92.7452 125.68 82.7947 128.395 81.8582 128.895C79.0414 130.397 78.9977 132.664 78.8199 135.553C78.7623 136.49 77.8508 139.775 78.668 140.592C80.1587 142.082 84.8646 141.751 86.8712 141.984C90.9201 142.455 94.1324 142.012 97.9355 143.858C100.955 145.323 104.195 147.748 106.341 150.39C108.692 153.283 100.807 155.788 98.9229 156.34C97.2863 156.819 94.8572 156.883 93.4541 157.935C91.18 159.641 88.8119 161.275 86.213 162.467C80.2864 165.184 73.6531 164.662 67.6038 162.847C60.7802 160.8 54.2203 158.225 47.83 155.074C47.2203 154.773 43.8738 153.748 43.4752 153.15C43.2912 152.874 44.1227 153.001 44.4373 152.897C45.0664 152.687 45.6706 152.417 46.3109 152.238C49.1111 151.458 51.1644 150.17 53.9064 148.896C59.2727 146.403 63.7926 142.253 69.2748 140.06C70.0946 139.732 71.3589 140.845 72.4397 140.845C74.8368 140.845 77.1088 140.768 79.4276 140.136C81.1234 139.674 83.3692 140.565 85.0483 140.845C90.9489 141.828 93.6733 145.429 98.3152 148.744C99.0963 149.302 106.499 151.531 102.037 151.2C94.8793 150.67 87.8795 148.825 80.7441 148.187C78.4773 147.985 78.0938 148.15 75.9336 148.643C70.9499 149.78 66.146 150.449 61.021 150.719C57.4614 150.907 52.1794 150.064 48.7415 151.783" stroke="#EAE2EA" stroke-width="3" stroke-linecap="round"/>
</svg>
