<svg width="100" height="204" viewBox="0 0 100 204" fill="none" xmlns="http://www.w3.org/2000/svg">
<path d="M84.0673 26.449C84.4317 29.7273 88.1461 32.4142 89.0796 35.9138C90.0537 39.5654 91.0845 42.7033 91.0845 46.5478C91.0845 52.5422 91.0845 58.5366 91.0845 64.531C91.0845 75.1125 89.4435 83.9692 92.087 94.54C92.8938 97.7662 97.5243 111.632 91.0845 111.632C87.1619 111.632 84.52 103.987 78.6095 105.675C74.8054 106.762 70.6402 114.717 76.0477 111.855C84.2335 107.523 89.0796 117.539 89.0796 125.05C89.0796 126.458 89.8067 131.833 88.5227 132.566C87.0473 133.409 83.2121 132.678 81.5055 132.678C77.726 132.678 75.2677 132.56 72.0378 134.459C70.1692 135.558 68.3591 136.686 66.0231 136.686C62.9697 136.686 51.7693 144.905 56.6111 145.65C61.1588 146.35 62.6959 144.226 67.0255 146.263C69.4656 147.41 73.4078 146.708 76.0477 146.708C78.2253 146.708 81.4018 147.368 83.0649 145.706C85.015 143.756 88.1006 144.1 89.3024 141.697C90.2391 139.824 92.3668 137.411 89.6365 136.631C88.5526 136.321 90.0821 140.056 90.0821 141.864C90.0821 143.836 91.579 151.513 88.0772 151.719C85.0063 151.899 82.2025 151.746 79.2778 150.939C74.7178 149.682 69.5707 153.381 65.132 151.162C63.0049 150.099 60.1197 144.421 60.1197 142.254C60.1197 141.748 64.0321 140.67 64.4637 140.472C70.4318 137.742 76.7466 135.855 83.3433 136.631C92.8529 137.749 99.4729 160.892 95.5399 168.755C94.2371 171.36 91.6392 171.634 89.0796 171.762C86.9839 171.867 85.086 172.764 82.9535 172.764C77.5191 172.764 74.1357 170.301 69.3646 167.642C65.2406 165.343 59.5361 165.478 56.6668 170.259C56.4113 170.684 82.2141 174.988 85.4596 176.494C89.653 178.441 96.9132 181.75 97.8233 186.906C98.3957 190.148 97.6012 198.318 95.0944 200.824C91.5339 204.384 82.3474 198.715 77.8298 198.82C71.0576 198.978 68.9424 199.637 62.0132 197.373C58.7395 196.303 55.0498 196.473 52.3228 194.366C44.7909 188.548 37.7008 182.293 30.6586 175.882C27.765 173.247 27.0086 172.523 23.8085 171.038C18.2461 168.456 13.8227 162.731 8.6602 159.291C3.34226 155.746 3.87069 154.839 3.87069 147.654C3.87069 130.026 4.94828 111.733 2.08854 94.2617C1.57137 91.1021 1.69684 87.6283 2.42269 84.5184C3.68517 79.1094 4.02269 73.8388 4.65037 68.3169C5.24552 63.0811 8.37347 58.7688 8.77159 53.3959C9.97512 37.153 10.7818 28.3899 22.5832 15.7593C26.2403 11.8453 30.5214 8.52818 33.8887 4.3458C36.9521 0.540909 40.1308 2.15909 44.6373 3.67769C51.2613 5.90984 55.2158 9.73899 60.5653 13.5322C70.0108 20.23 76.5825 31.0332 82.4522 40.8132C83.1707 42.0102 83.163 43.3376 83.0649 44.7105C82.6765 50.1456 77.1697 54.7347 74.4883 59.0748C72.3259 62.5747 66.3461 67.0061 62.4588 68.0942C56.0723 69.8819 52.2759 71.5461 45.4727 71.5461C40.5004 71.5461 37.8104 70.959 34.39 66.758C33.059 65.1233 26.4673 53.7666 28.9321 53.5072C38.8429 52.4643 51.6441 50.2481 59.9526 57.5159C62.4229 59.6767 65.6509 60.427 68.5292 62.0256C70.2475 62.9799 76.6437 65.804 74.544 62.0256C72.0042 57.4554 69.8941 50.9796 65.2434 47.9397C62.684 46.2667 56.6019 47.4381 53.4367 46.7148C47.7765 45.4215 42.205 46.4956 37.453 49.3872C36.2763 50.1033 24.7229 51.8831 29.9903 54.9548C32.7279 56.5512 36.617 55.4009 38.7339 53.2845C39.3808 52.6378 38.9567 50.9669 38.9567 53.5629C38.9567 56.2951 40.3379 58.1862 41.9641 60.2996C44.7943 63.9778 52.9911 64.1168 52.9911 58.7407C52.9911 55.8755 49.9837 55.6159 49.9837 58.518" stroke="#EAE2EA" stroke-width="3" stroke-linecap="round"/>
</svg>
